<?xml version="1.0" encoding="UTF-8"?>
<svg id="Calque_1" xmlns="http://www.w3.org/2000/svg" xmlns:xlink="http://www.w3.org/1999/xlink" version="1.1" viewBox="0 0 2048 2048">
  <!-- Generator: Adobe Illustrator 30.3.0, SVG Export Plug-In . SVG Version: 2.1.3 Build 182)  -->
  <defs>
    <style>
      .st0 {
        fill: url(#Dégradé_sans_nom_7);
      }

      .st1 {
        fill: url(#Dégradé_sans_nom_72);
      }

      .st2 {
        fill: url(#Dégradé_sans_nom_71);
      }
    </style>
    <linearGradient id="Dégradé_sans_nom_7" data-name="Dégradé sans nom 7" x1="-3111.47" y1="1495.04" x2="-3111.47" y2="580.29" gradientUnits="userSpaceOnUse">
      <stop offset="0" stop-color="#bf4000"/>
      <stop offset=".15" stop-color="#c14501"/>
      <stop offset=".34" stop-color="#c85304"/>
      <stop offset=".54" stop-color="#d46b0a"/>
      <stop offset=".75" stop-color="#e58d12"/>
      <stop offset=".96" stop-color="#fab81d"/>
      <stop offset="1" stop-color="#ffc11f"/>
    </linearGradient>
    <linearGradient id="Dégradé_sans_nom_71" data-name="Dégradé sans nom 7" x1="-1102.48" y1="1479.81" x2="-1102.48" y2="567.81" xlink:href="#Dégradé_sans_nom_7"/>
    <linearGradient id="Dégradé_sans_nom_72" data-name="Dégradé sans nom 7" x1="1024" y1="1804.13" x2="1024" y2="243.87" xlink:href="#Dégradé_sans_nom_7"/>
  </defs>
  <path class="st0" d="M-3385.9,1113.68c-30.34-78.13-44.61-77.85-71.57,1.08-14,29.84-19.57,72.75-39.5,98.23,0,0-12.6,12.39-12.6,12.39-16.53,17.32-50.03,9.55-64.34-11.54-40.2-65.02-43.52-165.56-71.43-235.73-11.3,43.26-31.47,142.43-94.22,100.35-43.02-47.82-45.96-39.3-107.44-39.52-18.37.41-18.59-30.35.04-29.84,0,0,68.63-.41,68.63-.41,24.3.76,43.15-15.74,53.71-36.28,13.59-22.51,30.66-58.1,62.5-53.26,12.67-66.67,61.94-106.81,92.43-23.41,14.18,40.13,24.41,103.17,33.64,145.3,7.8,29.54,12.29,67.62,31.55,91.38,8.36-13.38,12.41-28.15,16.28-43.66,13.36-54.92,25.69-133.34,36.25-189.72,11.42-45.88,15.76-104.87,56.16-134.75,53.25-28.94,80.14,50.13,97.84,85.75,43.23,95.67,110.73,247.07,154.24,343.82,82.85-176.56,179.23-370.46,251.6-550.88,23.63-62.34,75.02-95.89,106.09-14.92,35.82,113.2,43.2,265.81,68.52,381.57,14.74-51.96,19.83-147.33,57.4-186.58,9.53-8.48,21.91-10.86,33.45-5.32,31.61,15.39,37.33,63.99,46.35,93.78.27,2.06,1.04,2.72,3.22,2.47,30.67-1.76,53.9,36.49,69.98,58.17,12.93,21.28,35.39,36.82,61.05,36.69,0,0,65.98-.17,65.98-.17,9.08-.02,16.17,3.94,17.76,13.25,1.23,7.21-3.88,16.65-12.79,16.73l-64.39.62c-18.09.17-32.07,9.67-41.97,24.34-12.04,17.47-26.98,38.13-50.88,35.49-50.62-7.44-55.17-103.4-68.39-141.93-48.08,63.83-39.51,304.6-111.26,328.67-91.23,13.86-74.87-266.91-123.13-321.69-19.18-12.23-36.47,57.15-44.04,74.92,0,0-30.13,86.76-30.13,86.76-20.79,59.53-53.46,147.56-77.03,206-32.08,83.17-102.14,206.91-207.42,147.71-64.42-38.87-94.28-128.42-124.15-194.47-20.77-48.82-49.05-121.56-68.03-171.39ZM-3197.92,1315.23c24.6,57.81,62.11,83.28,99.31,17.1,57.51-126.12,130.97-328.36,182.85-456.92,12.08-35.56,47.09-119.79,89.84-66.39,10.08,13.85,14.9,33.96,19.55,50.34,22.05,95.6,31.75,212.56,51.41,309.21,34.4,170.81,60.86,48.52,78.39-38.75-16.26,3.84-31.77-.57-40.56-14.72-14.6-22.9-21.03-49.96-26.56-76.31-5.23-29.1-20.24-119.06-24.28-149.78-13.1-59.9-24.21-241.26-64.8-277.85-27.61,11.92-48.42,93.2-63.33,122.75-67.7,164.75-140.81,349.18-217.85,510.14-8.11,19.8-33.8,33.2-50.45,15.25-14.82-13.63-34.01-73.97-43.99-91.77-24.79-58.68-60.66-146.97-83.89-206.27-29.75-59.28-76.68-289.66-121.97-93.47.49,1.45-16.35,68.04-11.67,67.35,71.61-55.47,102.25,69.51,122.39,116.21,27.71,73.83,75.12,189.93,105.6,263.88ZM-3368.7,1073.71c20.76,53.66,56.5,146.13,78.98,199.14,33.25,68.15,77.26,223.75,179.16,184.61,51.97-25.39,73.29-88.68,96.43-137.81,16.37-44.02,66.37-172.39,79.53-215.35,7.36-20.52,41.17-120.35,51.19-137.79,9.04-20.25,29.44-41.92,50.59-34.52,3.41,1.19,6.68,3.72,10.65,1.29-4.91-15.97-16.03-110.22-34.53-109.11-8.1,8.87-13.76,19.65-18.28,30.86-31.21,77.82-79.74,204.68-111.65,283.39-7.29,18.19-46.22,117.27-54.25,137.61-21.76,46.3-42.51,124.84-104.98,125.67-53.33-3.72-75.17-62.98-93.35-106.37-32.46-77.6-76.47-192.18-106.93-271.02-8.95-17.93-28.5-89.51-57.61-68.92-20.41,18.53-29.76,46.87-36.35,73.05,34.47-17.38,57.15,16.79,71.4,45.28ZM-2672.97,1072.41c17.91-46.97,22.03-117.68,65.52-149.07-6.2-13.83-15.5-70.82-30.13-77.41-31.51,16.71-46.23,182.91-65.86,227.14,12.4,38.57,19.95,29.95,30.47-.66ZM-3532.65,1205.15c13.39-6.93,21.05-26.65,25.98-40.9-52.21-10.94-59.71-139.19-72.79-184.69-7.68-22.29-13.06-84.74-33.39-98.93-14.09,14.24-16.58,36.55-22.65,55.12,43.1,39.23,52.64,266.37,102.86,269.4ZM-2499.58,1038.97l9.39-10.06c-30.36-8.64-65.28-86.41-81.14-81.02,8.41,27.38,17,109.63,42.19,120.87,11.52-.46,22.24-22.48,29.56-29.79ZM-3679.89,988.04l8.95-35.16c.33-1.28-.79-2.55-2.26-2.31-24.52,25.69-33.93,67.35-70.55,80.66,7.53,8.9,14.89,17.45,23.75,24.63,19.74,16.01,35.11-48.22,40.1-67.83Z"/>
  <path class="st2" d="M-354.04,1006.17c-1.16,2.97-4.74,5.91-10.12,8.75-10.84,5.54-24.16,9.67-35.94,14.37-30.3,10.61-64.87,37.73-94.11,33.92-17.3-2.32-28.96-15.55-37.91-29.92-4.38-7.02-8.58-14.89-12.73-22.33-6.62-11.05-19.75-38.78-32.35-31.03-2.89,1.86-5.52,5.53-7.81,10.61-23.91,67.16-32.83,202.56-74.37,254.18-27.02,32.82-59.9,9.26-76.12-22.74-7.64-14.4-13.01-30.05-17.49-45.78-8.52-30.16-14.03-62.69-19.24-92.46-5.45-30.31-26.09-177.99-38.36-204.01-83.18-141.92-152.52,758.33-377.1,575.43-40.12-32.18-69.99-74.71-95.6-118.8-27.53-46.14-49.42-96.09-68.12-146.2-7.39-18.99-14.88-37.8-22.92-56.47-9.65-21.05-39.66-95.49-64.15-77.35-5.48,4.45-9.1,10.6-12.8,17.61-3.15,6.03-6.34,13.1-9.71,20.77-16.29,36.7-36.66,86.58-76.02,102.61-30.54,11.77-53.24-12.07-66.34-39.69-19.24-39.08-28.52-89.11-40.28-130.68-3.32-10.06-5.32-19.45-11.27-26.56-17.02-19.15-40.85,38.15-71.77,47.95-24.71,9.47-49.93-3.45-72.9-13.01-15.03-7.15-50.39-18.41-51.59-31.19-.09-4.18,4.42-7.93,12.22-11.18,12.17-4.96,28.85-8.48,41.99-13.58,63.97-20.64,107.81-129.8,158.27-136.33,19.15-1.89,35.73,11.68,45.83,26.97,29.3,28.35,54.75,225.64,74.8,149.56,14.1-53.5,69.2-327.39,161.63-264.38,26.6,18.41,46.01,50.21,60.9,78.9,42.37,85.8,80.69,175.53,122.01,262.47,5.32,10.91,30.25,58.22,38.32,66.15,8.98,9.02,18.86,10.98,28.36,4.97,10.69-6.71,19.03-20.85,25.57-32.79,80.27-154.21,133.25-349.91,205.51-507.45,35.26-71.27,105.15-88.06,123.13,1.81,29.44,147.14,26.41,119.64,39.67,244.01,3,28.15,3.66,100.25,27.5,127.26,8.77,9.94,23.12-26.35,43.72-109.06,7.21-28.97,9.13-58.85,36.61-74.87,33.24-19.38,47.28,24.24,61.37,48.82,15.92,28.1,29.76,57.53,50.88,81.23,24.18,27.38,57.46,33.63,92.16,38,15.73,2.2,50.23,7.62,46.74,21.43l-.03.07Z"/>
  <path class="st1" d="M1585.98,573.4c-230.53,46.19-391.96,1884.88-875.62,981.33-78.97-164.11-99.87-385.85-112.78-527.45-4.19-38.28-7.98-78.3-23.25-114.27-38.35-90.06-101.79-37.73-149.63,24.84-9.44,12.03-15.55,21.66-24.4,32.86-8.09,10.12-17.56,19.83-27.01,29.05-23.2,22.42-50.37,45.6-81.71,56.89-48.51,18.52-96.89-.28-142.56-20.73-18.83-8.98-59.35-24.87-64.64-43.45-2.43-8.34,5.44-15.62,13.15-19.37,11.44-5.9,24.58-9.15,37.21-12.84,238.85-51.29,317.84-567.84,490.34-362.14,32.49,38.57,56.9,81.06,77.73,125.49,80.94,173.2,111.63,403.21,224.17,546.82,7.99,9.95,14.09,17.23,21.89,24.33,7.45,7.14,16.97,11.53,24.82,10.16,126.9-24.07,312.98-774.01,433-966.3,133.55-215.05,210.82-18.67,308.35,141.7,40.92,66.44,74.56,83.37,152.67,96.58,28.46,5.77,86.76,13.07,95.84,38.57,1.83,6.49-1.24,13.24-8.37,19.32-11.64,9.7-28.86,16.15-43.58,22.41-12.35,5.12-24.62,10.39-36.78,16-95.93,45.51-158.84,75.17-211.84-28.2-16.92-31.35-42.34-75.36-63.1-73.73"/>
</svg>
