<?xml version="1.0" encoding="UTF-8"?>
<svg id="Calque_1" xmlns="http://www.w3.org/2000/svg" xmlns:xlink="http://www.w3.org/1999/xlink" version="1.1" viewBox="0 0 2048 1280">
  <!-- Generator: Adobe Illustrator 30.3.0, SVG Export Plug-In . SVG Version: 2.1.3 Build 182)  -->
  <defs>
    <style>
      .st0 {
        fill: url(#Dégradé_sans_nom_7);
      }
    </style>
    <linearGradient id="Dégradé_sans_nom_7" data-name="Dégradé sans nom 7" x1="1024.53" y1="1111.04" x2="1024.53" y2="196.29" gradientUnits="userSpaceOnUse">
      <stop offset="0" stop-color="#bf4000"/>
      <stop offset=".15" stop-color="#c14501"/>
      <stop offset=".34" stop-color="#c85304"/>
      <stop offset=".54" stop-color="#d46b0a"/>
      <stop offset=".75" stop-color="#e58d12"/>
      <stop offset=".96" stop-color="#fab81d"/>
      <stop offset="1" stop-color="#ffc11f"/>
    </linearGradient>
  </defs>
  <path class="st0" d="M750.1,729.68c-30.34-78.13-44.61-77.85-71.57,1.08-14,29.84-19.57,72.75-39.5,98.23,0,0-12.6,12.39-12.6,12.39-16.53,17.32-50.03,9.55-64.34-11.54-40.2-65.02-43.52-165.56-71.43-235.73-11.3,43.26-31.47,142.43-94.22,100.35-43.02-47.82-45.96-39.3-107.44-39.52-18.37.41-18.59-30.35.04-29.84,0,0,68.63-.41,68.63-.41,24.3.76,43.15-15.74,53.71-36.28,13.59-22.51,30.66-58.1,62.5-53.26,12.67-66.67,61.94-106.81,92.43-23.41,14.18,40.13,24.41,103.17,33.64,145.3,7.8,29.54,12.29,67.62,31.55,91.38,8.36-13.38,12.41-28.15,16.28-43.66,13.36-54.92,25.69-133.34,36.25-189.72,11.42-45.88,15.76-104.87,56.16-134.75,53.25-28.94,80.14,50.13,97.84,85.75,43.23,95.67,110.73,247.07,154.24,343.82,82.85-176.56,179.23-370.46,251.6-550.88,23.63-62.34,75.02-95.89,106.09-14.92,35.82,113.2,43.2,265.81,68.52,381.57,14.74-51.96,19.83-147.33,57.4-186.58,9.53-8.48,21.91-10.86,33.45-5.32,31.61,15.39,37.33,63.99,46.35,93.78.27,2.06,1.04,2.72,3.22,2.47,30.67-1.76,53.9,36.49,69.98,58.17,12.93,21.28,35.39,36.82,61.05,36.69,0,0,65.98-.17,65.98-.17,9.08-.02,16.17,3.94,17.76,13.25,1.23,7.21-3.88,16.65-12.79,16.73l-64.39.62c-18.09.17-32.07,9.67-41.97,24.34-12.04,17.47-26.98,38.13-50.88,35.49-50.62-7.44-55.17-103.4-68.39-141.93-48.08,63.83-39.51,304.6-111.26,328.67-91.23,13.86-74.87-266.91-123.13-321.69-19.18-12.23-36.47,57.15-44.04,74.92,0,0-30.13,86.76-30.13,86.76-20.79,59.53-53.46,147.56-77.03,206-32.08,83.17-102.14,206.91-207.42,147.71-64.42-38.87-94.28-128.42-124.15-194.47-20.77-48.82-49.05-121.56-68.03-171.39ZM938.08,931.23c24.6,57.81,62.11,83.28,99.31,17.1,57.51-126.12,130.97-328.36,182.85-456.92,12.08-35.56,47.09-119.79,89.84-66.39,10.08,13.85,14.9,33.96,19.55,50.34,22.05,95.6,31.75,212.56,51.41,309.21,34.4,170.81,60.86,48.52,78.39-38.75-16.26,3.84-31.77-.57-40.56-14.72-14.6-22.9-21.03-49.96-26.56-76.31-5.23-29.1-20.24-119.06-24.28-149.78-13.1-59.9-24.21-241.26-64.8-277.85-27.61,11.92-48.42,93.2-63.33,122.75-67.7,164.75-140.81,349.18-217.85,510.14-8.11,19.8-33.8,33.2-50.45,15.25-14.82-13.63-34.01-73.97-43.99-91.77-24.79-58.68-60.66-146.97-83.89-206.27-29.75-59.28-76.68-289.66-121.97-93.47.49,1.45-16.35,68.04-11.67,67.35,71.61-55.47,102.25,69.51,122.39,116.21,27.71,73.83,75.12,189.93,105.6,263.88ZM767.3,689.71c20.76,53.66,56.5,146.13,78.98,199.14,33.25,68.15,77.26,223.75,179.16,184.61,51.97-25.39,73.29-88.68,96.43-137.81,16.37-44.02,66.37-172.39,79.53-215.35,7.36-20.52,41.17-120.35,51.19-137.79,9.04-20.25,29.44-41.92,50.59-34.52,3.41,1.19,6.68,3.72,10.65,1.29-4.91-15.97-16.03-110.22-34.53-109.11-8.1,8.87-13.76,19.65-18.28,30.86-31.21,77.82-79.74,204.68-111.65,283.39-7.29,18.19-46.22,117.27-54.25,137.61-21.76,46.3-42.51,124.84-104.98,125.67-53.33-3.72-75.17-62.98-93.35-106.37-32.46-77.6-76.47-192.18-106.93-271.02-8.95-17.93-28.5-89.51-57.61-68.92-20.41,18.53-29.76,46.87-36.35,73.05,34.47-17.38,57.15,16.79,71.4,45.28ZM1463.03,688.41c17.91-46.97,22.03-117.68,65.52-149.07-6.2-13.83-15.5-70.82-30.13-77.41-31.51,16.71-46.23,182.91-65.86,227.14,12.4,38.57,19.95,29.95,30.47-.66ZM603.35,821.15c13.39-6.93,21.05-26.65,25.98-40.9-52.21-10.94-59.71-139.19-72.79-184.69-7.68-22.29-13.06-84.74-33.39-98.93-14.09,14.24-16.58,36.55-22.65,55.12,43.1,39.23,52.64,266.37,102.86,269.4ZM1636.42,654.97l9.39-10.06c-30.36-8.64-65.28-86.41-81.14-81.02,8.41,27.38,17,109.63,42.19,120.87,11.52-.46,22.24-22.48,29.56-29.79ZM456.11,604.04l8.95-35.16c.33-1.28-.79-2.55-2.26-2.31-24.52,25.69-33.93,67.35-70.55,80.66,7.53,8.9,14.89,17.45,23.75,24.63,19.74,16.01,35.11-48.22,40.1-67.83Z"/>
</svg>